<?xml version="1.0" standalone="no"?>
<!DOCTYPE svg PUBLIC "-//W3C//DTD SVG 1.1//EN" "http://www.w3.org/Graphics/SVG/1.1/DTD/svg11.dtd" >
<svg xmlns="http://www.w3.org/2000/svg">
<metadata></metadata>
<defs>
<font id="melakaregular" horiz-adv-x="1662" >
<font-face units-per-em="2048" ascent="1638" descent="-410" />
<missing-glyph horiz-adv-x="682" />
<glyph horiz-adv-x="0" />
<glyph unicode="&#xd;" horiz-adv-x="550" />
<glyph unicode=" "  horiz-adv-x="682" />
<glyph unicode="&#x09;" horiz-adv-x="682" />
<glyph unicode="&#xa0;" horiz-adv-x="682" />
<glyph unicode="!" horiz-adv-x="961" d="M60 -300q70 120 180 120q80 -20 80 -120q0 -28 -120 -120h-80q-29 0 -60 60v60zM100 261v60q120 545 320 941l341 781q10 0 80 20l40 -60v-41q0 -76 -481 -1121l-160 -621l-40 -20h-40q-29 0 -60 61z" />
<glyph unicode="&#x22;" horiz-adv-x="901" d="M60 1782l60 40q140 0 140 -240q60 -309 60 -601q-30 -80 -60 -80h-40q-104 0 -160 881zM621 1101q0 21 20 21l-20 100v40q0 82 20 160q-20 77 -20 160v60q0 29 60 60h40q31 0 80 -80v-160q0 -60 20 -60l-20 -100v-120q0 -185 20 -521q-20 -39 -20 -60h-60 q-85 15 -120 500z" />
<glyph unicode="#" horiz-adv-x="2382" d="M60 301v60q0 49 521 120q100 212 100 260l-40 20q-357 -60 -441 -60q-91 39 -100 80v20q0 80 701 160q349 714 380 721h80q29 0 60 -60q0 -95 -320 -621v-40l40 -20h300q163 0 281 481q59 173 100 180q120 0 120 -80q0 -67 -200 -561h160q83 0 160 -20q78 20 160 20h60 q121 0 121 -100q-32 -100 -141 -100l-80 20l-120 -20l-40 20q-20 0 -20 -20l-100 20h-240q-80 -228 -80 -300h260l120 -20q20 0 20 20l100 -20q248 20 260 20l61 -80v-40q-16 -60 -141 -100q-169 40 -440 40h-280q-76 0 -161 -481q0 -220 -80 -220h-80q-30 0 -60 80 q60 308 140 581v20h-500q-80 -236 -100 -521q-98 -140 -141 -140q-91 39 -100 80q0 100 141 561h-21q-62 0 -380 -20zM781 461h400q160 0 160 300q-50 0 -160 20l-80 -20q-77 20 -160 20q-88 0 -160 -320z" />
<glyph unicode="$" horiz-adv-x="1642" d="M60 941v80q0 321 461 561v20q0 30 -20 280q20 39 20 60h40q140 0 140 -180v-120h260q133 0 280 -180v-60q0 -60 -80 -60q-180 147 -240 160q-220 -15 -220 -60q40 -200 40 -401v-280h20q781 0 781 -280q20 -105 20 -120q0 -172 -281 -441q-285 -140 -440 -180 q0 -160 -100 -160q-100 32 -100 120h-281q-260 0 -260 200v20q0 108 80 140h40q51 0 80 -180l40 -20h281v80q-34 641 -100 641q-461 100 -461 360zM240 981q0 -180 301 -220l20 40v461q0 54 -40 120q-281 -133 -281 -401zM741 521l60 -501v-60q0 -40 60 -40q208 0 480 341 q20 108 20 180q0 88 -340 140q-20 0 -20 -20l-100 20q-160 -13 -160 -60z" />
<glyph unicode="%" horiz-adv-x="1982" d="M60 1041v141q82 360 320 360h40q301 -46 301 -260q0 -239 -321 -461h-100q-240 60 -240 220zM220 -620q30 252 921 1561q522 801 541 801h20l100 -20v-60q0 -70 -380 -561q-101 -195 -461 -680q-420 -687 -420 -741l20 -100q-10 -98 -201 -261h-80q-29 0 -60 61z M220 1061q0 -28 60 -60h60q201 136 201 301v20q0 29 -61 60h-140q-27 0 -120 -160v-161zM1281 140v40q0 353 261 481h100q181 0 260 -380q0 -248 -420 -381q-201 93 -201 240zM1442 220q20 -30 20 -120h40q145 0 240 221q0 116 -140 220q-160 0 -160 -321z" />
<glyph unicode="&#x26;" horiz-adv-x="1862" d="M60 -40q0 323 380 821q-120 188 -120 300v101q0 347 361 500h240q180 0 180 -280v-20q0 -325 -420 -601v-20q126 -280 380 -460q541 379 541 780l40 20h60q32 0 80 -140q-118 -413 -581 -781q-40 -6 -40 -40q180 -172 180 -320l-60 -40h-20q-108 0 -260 220h-40 q-351 -278 -601 -300q-300 73 -300 260zM240 -20q39 -91 80 -100h40q240 13 541 300v20q0 20 -320 401v20h-20q-321 -374 -321 -641zM480 1142q0 -53 61 -221h40q340 280 340 461l-20 120h-120q-301 -80 -301 -360z" />
<glyph unicode="'" horiz-adv-x="660" d="M60 1021v60q0 38 300 621q46 220 100 220h41q80 -32 80 -140q-35 -239 -361 -660q-86 -101 -160 -101z" />
<glyph unicode="(" horiz-adv-x="1041" d="M60 241q0 458 380 1141q232 231 401 280q120 -20 120 -60v-20q0 -19 -240 -180q-274 -256 -401 -721q-60 -237 -60 -420q0 -396 241 -621q160 -115 160 -140v-40q-33 -80 -140 -80h-41q-420 369 -420 861z" />
<glyph unicode=")" horiz-adv-x="721" d="M60 1562v80q6 40 40 40h40q252 0 501 -861v-340q0 -330 -281 -801l-60 -40q-104 0 -120 60v100q280 303 280 841q0 422 -320 841q-31 0 -80 80z" />
<glyph unicode="*" horiz-adv-x="1782" d="M60 1101v81q0 28 60 60h20q93 0 441 -301h20v20q-100 204 -100 321v40q6 40 40 40q136 0 200 -301h20q45 0 160 501l100 20q29 0 60 -60v-20q-40 -210 -200 -741h20q59 0 681 340q120 -26 120 -60q0 -174 -240 -200q0 -20 -401 -200v-20q0 -28 321 -180l20 -100v-40 q0 -29 -61 -60q-41 0 -380 200h-20v-20q40 -228 40 -321v-20q0 -31 -80 -80h-40q-67 0 -100 321q-48 0 -140 -361l-40 -20h-60q-61 20 -61 120l81 281h-20q-264 -161 -361 -161q-29 0 -60 61v40q53 66 521 320l20 40q-146 166 -581 460z" />
<glyph unicode="+" horiz-adv-x="1782" d="M60 481v40q0 88 781 240v100q60 0 60 40v140q60 461 120 461h20q80 -20 80 -80q-40 -423 -40 -501v-120h20q387 45 521 80q80 -30 80 -60v-120q0 -29 -60 -60h-20q-20 0 -20 20q-20 0 -20 -20q-150 40 -160 40q-361 0 -361 -160v-220q0 -45 20 -81l-20 -40 q60 -135 60 -220v-40q0 -104 -60 -120h-40q-100 0 -120 80l20 140q0 91 -40 321l20 40q-20 108 -20 180v20h-100q-590 -160 -641 -160h-20q-29 0 -60 60z" />
<glyph unicode="," horiz-adv-x="801" d="M60 -460q0 93 380 460l101 281q-40 65 -40 120l20 80h80q120 -70 120 -180v-40q-36 -272 -361 -601q-27 0 -200 -180q-39 -20 -60 -20l-40 60v20z" />
<glyph unicode="-" d="M60 521q0 100 661 160q484 60 761 120q91 -39 100 -80v-40q0 -100 -461 -100q-60 -34 -721 -100q0 -16 -220 -60q-120 20 -120 100z" />
<glyph unicode="." horiz-adv-x="480" d="M60 -320q46 97 160 180h120q29 0 60 -60v-40q-68 -260 -260 -260q-31 0 -80 80v100z" />
<glyph unicode="/" horiz-adv-x="1682" d="M60 -120q322 402 981 1302q424 500 541 500l20 -40v-20q0 -105 -321 -440q-456 -553 -881 -1162q-186 -300 -220 -300h-20q-91 39 -100 80v80z" />
<glyph unicode="0" horiz-adv-x="1742" d="M60 220q0 397 320 962q273 300 521 300h180q329 0 461 -401q80 0 120 -640v-100q0 -138 -160 -581q-142 -306 -541 -421l-120 -20h-140q-268 0 -541 541q-40 60 -100 360zM260 321q0 -372 321 -721q89 -80 180 -80h20q540 105 540 380q161 285 161 461q0 665 -241 881 q-11 36 -280 80q-216 0 -481 -301q-220 -534 -220 -620v-80z" />
<glyph unicode="1" horiz-adv-x="1182" d="M60 301q2 82 561 660q111 192 320 401h100q46 0 60 -100q-60 -710 -60 -1242v-100q0 -72 20 -180q0 -120 -140 -120q-36 52 -80 160q20 137 20 220q0 126 -20 301q40 239 40 600v80h-40q0 -106 -681 -761h-40q-50 0 -60 81z" />
<glyph unicode="2" horiz-adv-x="1281" d="M60 -400q0 130 220 380q721 834 721 1322q0 140 -220 140q-361 -183 -361 -421l-40 -20h-40q-60 0 -80 161q0 243 461 460q33 20 100 20q380 0 380 -400q0 -435 -600 -1142q-241 -307 -241 -360h20q472 0 681 100q140 -35 140 -80v-100q0 -85 -1101 -140l-40 60v20z" />
<glyph unicode="3" horiz-adv-x="1422" d="M60 1282q0 173 541 300h100q335 0 440 -180l20 -100v-180q0 -164 -180 -381v-20q159 0 300 -220l60 -200q-134 -493 -400 -661l-380 -180q-129 60 -141 120q0 84 341 160q360 262 360 561q-40 220 -220 220q-126 0 -521 -140q-80 20 -80 120v20q0 17 461 260 q220 223 220 381q0 240 -220 240q-148 0 -641 -180h-20z" />
<glyph unicode="4" horiz-adv-x="1542" d="M60 -160q0 208 360 1121q60 276 141 481q0 138 100 160q53 0 100 -100q0 -106 -441 -1362q-40 -130 -40 -180v-20h20q661 47 661 160q59 426 140 441h40q0 -55 40 -120l-40 -301l40 -20q73 60 140 60h61q31 0 80 -80q0 -130 -281 -180q-140 0 -140 -440l-60 -60h-80 q-29 0 -60 60l60 360q-20 0 -20 20q-363 -100 -681 -100q-140 68 -140 100z" />
<glyph unicode="5" horiz-adv-x="1502" d="M60 1482v40q41 140 661 140h120l140 20v-20q113 40 320 40l40 -60v-40q0 -140 -861 -140v20q-33 -20 -100 -20v-200q0 -45 -20 -80l20 -40q-60 -289 -60 -421h20q256 153 661 240h40q243 0 381 -580q0 -632 -701 -841q-81 0 -421 -80q-107 40 -120 100q0 140 140 140 q66 -60 100 -60q486 0 781 460l20 120v181q-5 110 -160 380h-20q-148 0 -821 -320h-60q-30 0 -60 80q80 561 80 761v80z" />
<glyph unicode="6" horiz-adv-x="1462" d="M60 40q0 570 461 1322q301 280 460 280q40 -6 40 -40v-20q-420 -375 -420 -420q-172 -277 -301 -761v-20h20q308 260 721 260q341 -35 341 -320v-20q0 -471 -621 -701h-80q-372 0 -621 440zM280 100q111 -300 361 -300h20q266 0 500 340q40 151 40 161q-53 160 -100 160 l-120 -20l-40 20q-305 0 -661 -341v-20z" />
<glyph unicode="7" horiz-adv-x="1482" d="M60 1522v80q279 135 1101 300q241 0 241 -180v-180q-161 -678 -161 -741q120 0 120 -120v-20q-55 -100 -180 -100q-280 -675 -280 -901q-49 -40 -80 -40q-100 34 -100 100q0 145 220 681q0 32 40 160q-20 0 -20 20q-440 -80 -541 -80h-80q-28 0 -60 60v40q0 65 761 180 q180 672 180 901l-40 20q-607 -100 -1001 -200h-60q-39 20 -60 20z" />
<glyph unicode="8" horiz-adv-x="1402" d="M60 1222q0 190 601 460q180 60 300 60q317 0 360 -320v-20q0 -194 -400 -721v-20q340 -304 340 -461q0 -319 -660 -480q-326 0 -381 240q0 224 401 641v60q-87 0 -561 561zM300 1202q262 -400 461 -441q360 484 360 661v40q-32 80 -140 80h-100q-177 -2 -561 -240 l-20 -40v-60zM420 0v-40q0 -47 141 -60q480 110 480 300q0 203 -220 321h-20q-374 -345 -381 -521z" />
<glyph unicode="9" horiz-adv-x="1302" d="M60 -320q65 140 160 140q105 -20 120 -20q681 507 681 1121v80h-40q0 -144 -541 -340q-45 0 -80 -20q-260 55 -260 260q0 534 721 781l100 20q127 0 240 -200q0 -49 60 -421q0 -774 -620 -1301q-289 -220 -441 -220q-100 32 -100 120zM280 961q41 -120 80 -120 q347 81 521 301q80 185 80 220v60q0 120 -100 120q-120 0 -441 -280q-93 -104 -140 -301z" />
<glyph unicode=":" horiz-adv-x="500" d="M60 0v60q0 163 240 241q100 -33 100 -121q-58 -153 -200 -240h-80q-29 0 -60 60zM60 961q52 241 240 241h20q53 0 100 -101q0 -97 -200 -260h-100q-60 20 -60 120z" />
<glyph unicode=";" horiz-adv-x="660" d="M60 -240q0 43 240 481q60 160 100 460q-20 80 -80 80v60q75 120 100 120h60q81 0 101 -260q0 -254 -241 -801q-119 -220 -160 -220q0 -20 -60 -20l-60 80v20zM200 1262v100q0 56 220 140q88 -20 121 -100v-60q-133 -180 -221 -180q-82 27 -120 100z" />
<glyph unicode="&#x3c;" horiz-adv-x="1261" d="M60 341v60l921 781q20 60 120 60h20q30 0 60 -80q-150 -203 -821 -721l-20 -40q254 -80 681 -160q97 -57 120 -121v-60q0 -40 -40 -40h-100q-70 80 -621 160q-314 92 -320 161z" />
<glyph unicode="=" horiz-adv-x="1362" d="M60 901q0 80 280 80h221q260 0 660 60l60 -80v-60q0 -50 -180 -100q-45 0 -80 20l-921 -40q-40 66 -40 120zM160 261v40q0 80 801 140h260q30 0 60 -80q-31 -120 -140 -120h-240q-93 0 -621 -61q-120 41 -120 81z" />
<glyph unicode="&#x3e;" horiz-adv-x="1461" d="M60 1282v80q6 40 40 40h20q46 0 601 -301q419 -190 661 -400v-80q-208 -205 -1182 -561q-31 0 -80 80v60q82 75 541 201q440 228 440 260v20q-287 212 -921 501q-120 77 -120 100zM460 -1021q81 216 81 280h60q40 -6 40 -40q0 -109 -80 -160l20 -100v-20h-80 q-41 0 -41 40z" />
<glyph unicode="?" horiz-adv-x="1342" d="M60 1442q0 116 280 320q247 100 321 100h100q282 0 460 -500q40 -194 40 -220q-82 -248 -340 -601q-360 -336 -360 -421q0 -45 -20 -80q20 -35 20 -80q0 -107 -81 -140h-60q-30 0 -60 80q0 399 201 521q500 555 500 761v20q0 315 -260 460l-120 20h-40 q-256 -61 -441 -260q-82 -40 -120 -40q-20 39 -20 60zM460 -580q71 120 181 120q80 -20 80 -100q-45 -122 -120 -141q-141 0 -141 121z" />
<glyph unicode="@" horiz-adv-x="2242" d="M60 261v240q25 448 420 1001q578 400 801 400q781 -136 781 -440q100 -183 100 -441v-120q0 -173 -220 -440q-285 -200 -420 -200q-150 48 -301 220h-20q-309 -301 -480 -301h-80q-181 124 -181 261q0 447 401 781q271 174 380 180h100q29 0 61 -60q-20 -39 -20 -60 q60 -20 60 -120q-40 -316 -40 -421v-60q0 -119 120 -200h40q144 0 340 220q80 170 80 220v160q0 480 -280 541q0 48 -381 120q-170 0 -640 -300q-324 -342 -441 -881v-280q0 -618 381 -701h100q430 0 1121 480h80v-20q0 -243 -861 -600q-217 -60 -420 -60q-381 0 -561 560 q-20 205 -20 321zM661 441q0 -29 60 -60q200 0 440 400q60 149 60 320v121q-301 -98 -480 -401q-80 -174 -80 -260v-120z" />
<glyph unicode="A" horiz-adv-x="2022" d="M60 -500q0 76 180 520q261 918 541 1522q0 31 80 80h40q220 0 601 -961q88 -119 400 -1081q40 -7 40 -40v-60q0 -29 -60 -60q-196 0 -340 660q-59 100 -80 100q-1022 -69 -1022 -120q-200 -608 -200 -660q-49 -40 -80 -40q-91 38 -100 80v60zM521 301q20 0 20 -20l100 20 h60q278 0 721 80v20q-69 223 -461 961l-60 40q-160 -345 -320 -881z" />
<glyph unicode="B" d="M60 1362v20q124 260 841 300q393 0 460 -320q-43 -242 -460 -641v-20h140q248 -30 481 -320l60 -201v-60q0 -311 -821 -640q-47 0 -301 -100q-100 33 -100 100q20 38 20 60q-140 0 -140 520l-80 601l20 40l-100 641q-20 0 -20 20zM280 1342q0 -267 80 -741 q275 90 461 300q340 297 340 461v40q-74 100 -240 100q-463 0 -641 -160zM380 401q75 -781 121 -781q105 -20 120 -20q286 0 761 480l20 100q-93 341 -501 341q0 20 -20 20q-191 -20 -501 -140z" />
<glyph unicode="C" horiz-adv-x="1322" d="M60 481q86 414 160 580q149 481 481 481h80q178 0 320 -380l-40 -20h-40l-220 220h-140q-181 -69 -301 -441q-100 -315 -100 -480q0 -322 261 -721l120 -80q233 0 480 200h40l80 -20v-40q0 -167 -460 -340q-517 0 -681 801z" />
<glyph unicode="D" horiz-adv-x="1762" d="M60 1142v360q138 20 180 40l120 -20h40q45 0 80 20q1182 -356 1182 -841q20 0 20 -20q0 -307 -481 -741q-429 -200 -841 -320h-20q-20 0 -20 20q-65 -40 -100 -40q-91 39 -100 80q20 300 20 440h20q-100 699 -100 1022zM220 1342q20 -515 120 -1242q-20 -141 -20 -240 l60 -40q783 212 961 541q113 178 141 300q0 266 -441 481q-496 220 -801 220q0 -20 -20 -20z" />
<glyph unicode="E" horiz-adv-x="1582" d="M60 -140q74 1422 140 1422q-40 82 -40 120q60 20 60 40q108 0 881 -60h120q120 -70 120 -100v-40q0 -29 -60 -60h-60q-254 60 -781 60h-60q-67 0 -100 -841q20 0 20 -20q580 120 681 120h60q120 -13 120 -60q0 -100 -100 -140q-21 0 -60 20q-741 -108 -741 -161v-340 q84 -140 120 -140l1002 140h40q31 0 80 -80v-40q0 -72 -401 -100q0 -20 -40 -20q-39 20 -60 20q-465 -120 -681 -120q-126 0 -260 380z" />
<glyph unicode="F" horiz-adv-x="1782" d="M60 901q13 27 40 361q-40 65 -40 120q0 25 120 100h40q60 0 60 -20l100 20h80q115 0 141 -20l140 20q171 0 360 -20q211 20 461 20q108 0 140 -100q-39 -92 -80 -100h-200q-111 0 -281 20q-20 0 -20 -20l-240 20h-421q-180 0 -180 -160q-20 -62 -20 -241v-300 q40 0 40 -20q191 54 601 80q53 0 100 -100q-13 -53 -100 -100h-140l-120 20q-341 -67 -341 -100v-20q0 -316 40 -421l-20 -80q20 -265 20 -440q-14 -101 -60 -101h-60q-31 0 -80 81v320q0 110 -60 1041v60q0 45 -20 80z" />
<glyph unicode="G" horiz-adv-x="1542" d="M60 341q46 544 160 620q175 541 661 541h120q162 0 360 -320v-60q0 -41 -40 -41h-20q-211 261 -320 261h-80q-452 0 -621 -721q-20 0 -40 -421q134 -640 561 -640h20q247 0 460 360l20 100q-51 321 -220 321l-320 -100h-20q-32 0 -80 80v60q10 65 480 120 q281 -90 281 -281q40 -130 40 -180v-140q0 -200 -441 -480q-130 -40 -180 -40h-60q-550 0 -701 760q0 96 -20 201z" />
<glyph unicode="H" horiz-adv-x="1682" d="M60 0q0 20 20 20l-20 140q74 1282 140 1282h80q40 0 40 -60q0 -421 -40 -421q0 -20 20 -20q-40 -326 -40 -500h20q838 80 1061 120l20 140v561l-20 200l61 40h60q64 0 80 -441l-20 -40q0 -21 20 -60q-20 -204 -20 -320v-80l20 -120l-40 -100q40 -469 100 -661v-120 q0 -32 -80 -80h-60q-68 0 -121 861q-20 0 -20 20l-120 -20q-900 -25 -961 -121v-100q0 -83 20 -220q-20 -39 -20 -60q80 -120 80 -180q-35 -90 -140 -160h-20q-80 32 -80 140v180q0 72 -20 180z" />
<glyph unicode="I" horiz-adv-x="340" d="M60 100q0 229 20 421q-20 127 -20 340q0 521 80 521h60q28 0 60 -120l-20 -140v-461q0 -106 20 -180q-20 -105 -20 -200v-341q0 -83 20 -220q-30 -80 -60 -80h-20q-120 0 -120 120v340z" />
<glyph unicode="J" horiz-adv-x="1362" d="M60 -220q0 31 80 80h60q30 0 160 -220q325 -140 421 -140h200q86 0 100 280v20q0 548 -260 1081q-156 281 -200 281q-100 0 -501 -61l-40 81q48 160 581 160q0 20 420 100q100 -33 100 -120q0 -108 -320 -120q0 -45 220 -441q200 -614 200 -861q0 -484 -200 -581l-40 -20 q-614 92 -841 281l-140 160v40z" />
<glyph unicode="K" horiz-adv-x="1502" d="M60 1482q0 53 100 100q100 -28 100 -140v-20q0 -20 -20 -20l20 -40v-220q0 -101 20 -301h-20l20 -40v-60l20 -240h20q676 681 821 981q73 60 140 60l60 -80q0 -95 -580 -761l-180 -220q243 -124 440 -321q264 -184 401 -400v-100q-20 -60 -121 -60q-149 242 -340 400 q-367 321 -521 321q-140 -59 -140 -181v-160q0 -169 20 -500l-60 -40q-109 0 -160 100q20 513 20 580q-15 581 -40 581q20 35 20 80v20q0 45 -20 80q0 20 20 20l-20 140v321z" />
<glyph unicode="L" horiz-adv-x="1342" d="M60 -180q180 1046 340 1642q6 100 60 100h41q60 -20 60 -120q-141 -562 -281 -1482v-120h20q287 0 841 120q120 0 120 -140q0 -100 -500 -100q0 -35 -541 -80q-160 148 -160 180z" />
<glyph unicode="M" horiz-adv-x="2102" d="M60 -380q156 1962 240 1962h80q70 -5 221 -400q93 -359 240 -461h20q426 546 661 781h100q80 0 140 -641q52 0 80 -420q35 0 120 -541q60 -46 60 -140v-40q0 -104 -60 -120q-161 0 -260 801q-60 140 -180 821h-20q-442 -517 -561 -761l-60 -40h-40q-266 265 -421 721 q-20 0 -20 40h-20l-140 -1622l-40 -20h-80q-50 0 -60 80z" />
<glyph unicode="N" horiz-adv-x="1682" d="M60 -460q24 333 60 480l-20 80l40 321l-20 180q40 130 60 300q-40 78 -40 221q0 400 80 400q186 0 381 -481q167 -141 320 -420q220 -336 461 -541h20q0 355 -161 1322q39 91 80 100h40q108 0 221 -1602q20 -39 20 -60q0 -60 -120 -120q-86 11 -441 460 q-138 107 -320 441q-381 505 -381 541h-20q0 -22 -20 -61q40 -138 40 -240q0 -105 -60 -400l20 -80q-40 -344 -40 -561v-260q0 -27 -100 -100h-20q-31 0 -80 80z" />
<glyph unicode="O" horiz-adv-x="1642" d="M60 561q0 392 340 761q326 200 401 200h40q238 -45 520 -421q201 -369 201 -680q-74 -434 -201 -621q-308 -340 -520 -340h-80q-427 0 -621 580q-40 460 -80 521zM260 661q47 -981 401 -981q0 -40 160 -40q261 61 440 380q100 199 121 421q0 363 -201 600 q-166 261 -380 261h-40q-298 0 -501 -581v-60z" />
<glyph unicode="P" horiz-adv-x="1482" d="M60 1101v281q0 195 641 280q701 -119 701 -661q-168 -449 -401 -580q-661 -317 -661 -341v-80q0 -203 60 -420q-14 -241 -80 -241h-40q-100 0 -100 481q-20 0 -40 220q20 35 20 80q-100 389 -100 981zM240 941q26 -632 100 -640q821 322 821 660q39 7 60 120 q-102 361 -400 361q0 20 -100 20q-481 0 -481 -200v-321z" />
<glyph unicode="Q" horiz-adv-x="1822" d="M60 441v140q194 941 641 941h80q20 0 20 -20q42 20 180 40q416 0 561 -320q200 -413 200 -661q0 -750 -801 -961q-228 40 -320 40l-221 -341q-140 0 -140 141q160 197 160 280q-360 178 -360 721zM240 421q0 -488 301 -541q0 126 200 140h20q0 -21 20 -60l-60 -100v-40 l140 -20h100q384 118 461 300q140 137 140 601q-12 260 -301 621q-300 52 -300 80q-441 0 -501 -220q-220 -409 -220 -761z" />
<glyph unicode="R" horiz-adv-x="1522" d="M60 1522q0 151 481 180h40q673 0 780 -360q21 0 21 -60v-60q0 -438 -821 -621v-20q400 -347 861 -821q20 0 20 -40q-39 -91 -81 -100q-100 0 -340 300q-526 511 -681 561v-20q60 -388 80 -841q-38 -92 -80 -100h-60q-60 20 -60 120v200q0 318 -100 801v420 q-60 402 -60 461zM240 1442q0 -147 60 -521q-20 -39 -20 -60l20 -120q370 0 781 260q120 150 120 241q0 225 -340 280h-381q-101 0 -240 -40v-40z" />
<glyph unicode="S" horiz-adv-x="1582" d="M60 961v80q22 193 240 421q410 240 521 240h100q440 -100 440 -300v-20q0 -40 -40 -40q-246 200 -400 200q-338 0 -601 -340q-60 -77 -60 -181v-120q39 -100 220 -100q72 0 181 20q563 0 801 -380q40 -151 40 -281v-60q-82 -440 -241 -440q-120 -40 -500 -120h-20 q-419 0 -621 300q0 108 80 140h20q100 0 120 -80q-20 -39 -20 -60q0 -108 321 -160q680 73 680 400v40q-42 441 -280 441q0 14 -300 80q-170 -20 -281 -20h-40q-360 58 -360 340z" />
<glyph unicode="T" horiz-adv-x="1842" d="M60 1302v40q0 85 481 120q79 -20 140 -20q20 0 20 20q207 -40 741 -40h160q149 -25 160 -80v-20q0 -120 -140 -120q-327 60 -421 60h-20q-100 0 -120 -80q20 -467 60 -581q-20 -80 -20 -140q40 -571 40 -641t-120 -180q-30 0 -100 200q0 45 20 80q-25 1004 -60 1161 q20 78 20 161v20q-60 0 -60 20l-80 -20q-83 0 -220 20q-336 -40 -441 -40z" />
<glyph unicode="U" horiz-adv-x="1742" d="M60 301l20 100l-20 140q20 192 20 380q120 601 160 601h60q60 -20 60 -120q-100 -513 -120 -821q0 -725 220 -901q107 -100 161 -100q520 0 520 140q156 0 321 480l-20 41q20 35 40 180q0 178 -241 961v60l60 40h60q73 0 121 -340q120 -272 180 -701q-67 -661 -200 -661 q-243 -400 -681 -400l-40 20l-40 -20q-396 0 -601 560z" />
<glyph unicode="V" horiz-adv-x="1962" d="M60 1422v60q0 29 60 60q115 0 381 -841q160 -333 220 -581q141 -436 180 -460q97 148 360 801q242 470 341 841q77 219 120 220h80q41 -9 80 -100q-160 -235 -240 -561q-321 -685 -321 -721l-140 -320q-160 -386 -300 -521h-60q-58 0 -180 521q-187 548 -241 601 q0 62 -340 1001z" />
<glyph unicode="W" horiz-adv-x="2242" d="M60 1362q20 180 60 180h100l240 -1362q125 -380 161 -380h20q268 232 380 681q0 31 80 80q144 0 200 -341q206 -396 261 -420q340 270 340 921q34 0 60 320l-20 40q40 341 100 341h60q30 0 60 -80q-40 -367 -120 -781v-40q20 -39 20 -60q-187 -861 -520 -861 q-155 0 -401 560h-40q-114 -328 -460 -600h-60q-128 0 -281 620q-74 137 -120 661q-60 320 -120 521z" />
<glyph unicode="X" horiz-adv-x="1802" d="M60 1442v100q6 40 40 40h40q31 -4 401 -460q182 -163 280 -361h40l360 541q117 187 321 360h60l20 -100q-421 -561 -421 -601q-89 -114 -200 -380q146 -88 521 -641l200 -240v-60q0 -29 -60 -60h-60q-275 284 -601 781l-100 80h-20q-215 -245 -481 -741 q-93 -160 -120 -160h-60q-60 20 -60 120v20q484 784 581 901q0 31 -681 861z" />
<glyph unicode="Y" horiz-adv-x="1782" d="M60 1322v60q0 30 80 60q43 0 461 -581q117 -137 400 -380q201 336 421 801q160 260 240 260l40 -60v-40q0 -41 -260 -481q-109 -258 -541 -1061q-221 -581 -300 -581q-92 39 -100 81v40q0 75 200 420q0 75 180 401v60q-37 0 -280 320q-43 0 -421 501q0 35 -120 180z" />
<glyph unicode="Z" horiz-adv-x="1682" d="M60 -300l781 1041q380 521 380 621q-185 60 -420 60q-66 0 -361 -60q-280 20 -280 100v20q0 60 280 80q39 -20 61 -20q170 60 240 60h20q741 -60 741 -100l20 -40q0 -54 -281 -441q-231 -351 -400 -560q-215 -326 -220 -361q-191 -145 -281 -340q20 0 20 -20 q966 20 1122 80q60 0 120 -120q-40 -100 -120 -100q-22 0 -60 20q-258 -40 -481 -40l-140 20q-203 -60 -361 -60q-380 12 -380 100v60z" />
<glyph unicode="[" horiz-adv-x="1081" d="M60 -100q144 1782 240 1782h40q394 -140 641 -180q20 -39 20 -60q-30 -80 -60 -80l-521 120q-160 -968 -160 -1682l20 -100q-20 -30 -20 -120l40 -20q348 80 401 80q120 -31 120 -140v-20q0 -48 -621 -141q-140 0 -140 141q0 25 20 200l-20 40l20 40z" />
<glyph unicode="\" horiz-adv-x="2222" d="M60 1622l60 40q100 0 521 -460q576 -435 1301 -1302q200 -126 200 -240q-20 -60 -120 -60q-43 3 -961 1021q-995 816 -1001 1001z" />
<glyph unicode="]" horiz-adv-x="1221" d="M60 1402q0 93 400 140q145 60 541 120q120 0 140 -120q-160 -734 -220 -1702v-280q0 -20 -20 -20l40 -160q-20 -109 -20 -181v-100q0 -30 -80 -60q-474 200 -701 200l-40 60v40q0 29 60 61h100l481 -121v20q0 83 -20 161q0 487 180 1962v20h-20l-581 -100h-220 q-20 39 -20 60z" />
<glyph unicode="^" horiz-adv-x="6087" d="M60 1722q20 80 120 80q166 -125 521 -721q454 962 540 962q100 -13 100 -121v-200q-60 -892 -100 -1001l40 -20q157 444 401 601h100q191 0 280 -421q20 -33 20 -100q-40 -200 -200 -200q-380 -33 -380 -80q0 -87 240 -160q211 0 440 340q52 72 101 180l-20 80 q-21 558 -21 721q16 200 81 200h20q28 0 60 -60v-80q0 -389 40 -681q-20 -38 -20 -60q88 -771 140 -841v-20q0 -108 -80 -160h-80q-29 0 -60 60q0 205 -40 481q-267 -321 -581 -321h-20q-273 0 -421 361h-40l-40 -321l20 -40l-20 -100q0 -38 40 -240q-25 -240 -100 -240h-20 q-31 0 -80 80q100 1817 100 1882h-40q-220 -655 -360 -741h-60q-203 208 -381 581h-40q0 -178 160 -861q60 -247 60 -341l-80 -60h-40q-95 0 -120 521q-160 459 -160 1021q-20 0 -20 40zM1462 1502q29 120 280 260q67 0 100 20q80 -30 80 -60v-60q-296 -220 -420 -220z M1482 701h20q380 52 380 120v40q-40 261 -140 261q-118 0 -260 -421zM1822 -360q0 40 681 100q0 26 120 40v-20q666 100 981 100q260 -14 260 -80v-80l-40 -60q-129 40 -500 60l-1242 -180h-140q-120 0 -120 120zM2583 140q0 51 240 621q106 501 180 501h60q88 0 221 -561 q160 0 160 -40v-40q0 -16 -120 -120q0 -76 100 -220v-101q0 -28 -60 -60q-144 0 -240 341q-21 0 -21 20q-280 -72 -280 -200q-92 -141 -120 -141h-120zM2983 641q34 20 100 20q-20 177 -20 220h-40q-40 -139 -40 -240zM3544 1722l40 20h40q116 0 200 -861h20q79 30 341 561 q21 0 60 20q120 -20 120 -60q0 -118 -160 -301q-80 -90 -80 -140h20l100 20q172 0 260 -400q25 -681 280 -681h141q476 0 881 641q40 180 40 260v40q-43 861 -321 861q-79 -20 -140 -20v80q0 60 180 60q353 0 441 -1021q0 -532 -681 -961q-119 -85 -440 -120 q-451 0 -541 561q0 500 -160 500q-33 0 -301 -260v-100q40 -194 40 -221v-40q0 -28 -60 -60q-160 0 -160 341l-60 120q40 65 40 100zM4625 621v40q0 536 461 761q360 -51 360 -180l120 -801q-30 -80 -60 -80h-60q-13 0 -100 100q-168 -160 -260 -160l-120 -20 q-341 56 -341 340zM4785 701q0 -240 181 -240h40q163 0 300 300v20q-40 541 -140 541h-20q-214 -136 -280 -381q-46 -45 -81 -240z" />
<glyph unicode="_" horiz-adv-x="2022" d="M60 -661q0 121 721 121q100 -20 1121 -40l40 -60v-81q0 -47 -160 -80q0 45 -861 80q-394 -20 -861 -20v80z" />
<glyph unicode="a" horiz-adv-x="1382" d="M60 -20q0 350 481 701q102 60 200 60q20 0 20 -20q66 40 120 40q170 0 220 -420h-20q0 -323 220 -681v-100q-40 -49 -40 -80h-20q-158 0 -260 420l-40 20q-225 -320 -461 -320h-60q-302 0 -360 380zM260 20q0 -240 200 -240q176 0 401 380q16 81 40 81q0 234 -140 400 q-472 -354 -501 -621z" />
<glyph unicode="b" horiz-adv-x="1222" d="M60 1021q30 80 60 80h40q120 0 120 -640h40q266 190 421 200h40q229 0 360 -360v-101q0 -273 -460 -600q-173 -120 -441 -120q-113 565 -180 1541zM320 180q0 -171 80 -480h20q188 0 481 360q0 25 60 160q-68 241 -220 241q-160 -15 -421 -261v-20z" />
<glyph unicode="c" horiz-adv-x="1202" d="M60 140v40q0 464 581 761q45 0 80 20q200 -87 200 -240v-120q0 -104 -60 -120q-104 0 -120 60v180q0 40 -60 40q-441 -264 -441 -561q97 -400 281 -400h40l480 200h40q40 -6 40 -40v-60q-412 -300 -580 -300h-40q-316 0 -441 540z" />
<glyph unicode="d" horiz-adv-x="1302" d="M60 60q0 430 621 581h100q142 -40 160 -40q0 79 -40 541l60 40h40q120 0 120 -861l80 -541q20 0 20 -60q-20 -120 -60 -120h-80l-100 140q-210 -200 -320 -200h-160q-421 113 -421 420q-20 33 -20 100zM240 60q0 -253 261 -340h20q440 67 440 380v100q0 242 -220 301 q-321 0 -501 -441z" />
<glyph unicode="e" horiz-adv-x="1301" d="M60 40q0 381 100 541q265 420 541 420q246 0 300 -340v-20q0 -288 -661 -441h-80v-80q0 -360 241 -360h20q254 0 580 240h100q0 -21 20 -60q0 -212 -640 -360h-80q-328 0 -381 200q0 25 -60 260zM280 401q39 -20 60 -20q481 106 481 320q-60 93 -60 120h-40 q-226 0 -441 -420z" />
<glyph unicode="f" horiz-adv-x="1241" d="M60 140q100 106 100 201q0 665 401 1181q154 80 200 80h20q203 0 380 -380v-20q0 -157 -120 -221h-40q-40 0 -40 40q20 178 20 221q-67 159 -200 200q-148 0 -321 -421q-140 -441 -140 -700h20q56 0 461 140h20q91 -39 100 -80q0 -140 -240 -140l-341 -141 q0 -248 161 -540q28 0 60 -60v-40q0 -121 -161 -121q-113 128 -220 601q0 42 -120 200z" />
<glyph unicode="g" horiz-adv-x="1121" d="M60 -520q20 80 120 80h20l100 -60q241 40 401 220q140 280 140 400v80q-25 201 -80 201q-190 -321 -421 -321q-220 80 -220 281q0 389 481 580h40q160 0 220 -280q115 -115 180 -441q0 -238 -200 -600q-195 -234 -481 -281q-110 -20 -160 -20q-140 41 -140 161zM300 321 q7 -40 40 -40h60q221 115 221 360l-20 100q-301 -100 -301 -380v-40z" />
<glyph unicode="h" horiz-adv-x="1122" d="M60 20q40 76 160 981q60 321 120 321h60q29 0 60 -60q-60 -241 -160 -881h40q256 200 441 200q208 0 240 -340v-541q0 -83 20 -220q-26 -100 -60 -100h-80l-80 60q20 270 20 400v421q0 103 -60 120q-214 0 -521 -341l-20 -140l20 -40q0 -20 -20 -20q40 -171 40 -220 q-44 -180 -100 -180h-40q-31 0 -80 80v20q0 72 20 180q0 20 -20 20l20 100v100q0 45 -20 80z" />
<glyph unicode="i" horiz-adv-x="460" d="M60 -60q30 501 120 501h40q29 0 60 -60l-40 -541q40 -348 40 -420q-65 -40 -120 -40h-20q-67 0 -80 320v240zM160 881v20q0 29 60 60h20q108 0 140 -80q0 -104 -60 -120h-100q-60 20 -60 120z" />
<glyph unicode="j" horiz-adv-x="961" d="M60 -420q0 162 260 260q40 -6 40 -40v-60q-100 -106 -100 -160q0 -94 261 -160h60q120 69 120 320v220q0 110 -100 781q38 91 80 100h40q111 0 160 -1161v-20q-57 -421 -280 -421h-20q-521 127 -521 341zM521 1242q73 60 140 60q80 -40 80 -120q-39 -92 -80 -101h-40 q-100 52 -100 161z" />
<glyph unicode="k" horiz-adv-x="921" d="M60 421l40 500l-20 40q0 20 20 20l-20 100v41q0 28 60 60h80q33 0 80 -121q-40 -284 -40 -620v-60l20 -201q325 301 421 301q100 0 100 -120q0 -24 -381 -381q421 -376 421 -400v-60q0 -32 -80 -80h-60q-25 0 -341 320h-60v-160q0 -29 -60 -60h-40q-120 0 -120 540 q0 295 -20 341z" />
<glyph unicode="l" horiz-adv-x="380" d="M60 -400q40 943 60 1181q-40 107 -40 220l60 40h40q80 -31 120 -140q0 -171 -60 -1141q0 -107 40 -360q-28 -101 -140 -101q-66 0 -80 301z" />
<glyph unicode="m" horiz-adv-x="1542" d="M60 -160q0 397 280 681h20q248 0 361 -481h40q240 641 360 641h80q261 -63 261 -461l-20 -40q20 -142 20 -160q-29 -620 -121 -620h-40q-31 0 -80 80q0 82 60 540q0 323 -80 461q-165 -63 -340 -761q0 -231 -80 -240h-20q-180 0 -180 400l-141 381l-40 20 q-160 -208 -160 -401v-40q0 -147 60 -340v-20q0 -40 -40 -40h-60q-84 0 -140 400z" />
<glyph unicode="n" horiz-adv-x="1121" d="M60 541v40l100 20q60 -74 100 -260h20q200 380 461 380h60q240 -173 240 -440q-20 -352 -80 -601l-80 -60q-83 27 -120 100q100 368 100 541q0 247 -160 280q-189 -65 -321 -401q-60 -183 -60 -220q0 -90 60 -460q-30 -80 -60 -80h-40q-140 0 -200 1021q-20 0 -20 140z " />
<glyph unicode="o" horiz-adv-x="1242" d="M60 40q0 435 360 801q103 60 201 60q355 0 500 -540q20 -281 40 -301q0 -359 -620 -620h-161q-245 0 -320 460v140zM240 -60q12 -320 160 -320q581 115 581 540q0 448 -260 581h-100q-193 0 -221 -240q-160 -210 -160 -341v-220z" />
<glyph unicode="p" horiz-adv-x="1041" d="M60 481q66 218 140 300l100 -20q233 100 361 100q280 -68 280 -320q20 -35 20 -80q0 -373 -601 -781q0 -112 100 -421v-120q0 -30 -80 -60q-155 0 -220 741q0 20 20 20q-52 641 -120 641zM300 381q0 -481 60 -481q421 280 421 581q0 200 -160 200q-269 0 -321 -220v-80z " />
<glyph unicode="q" horiz-adv-x="1081" d="M60 140v121q0 346 521 620q38 20 60 20q320 -57 320 -240q20 -252 20 -300q0 -45 -20 -80q20 -137 20 -221v-400q0 -110 20 -280q-40 -161 -80 -161h-40q-35 0 -100 120l20 101v620h-20q-226 -240 -421 -240q-225 0 -300 320zM240 200q15 -200 120 -200q221 0 401 401 v200q0 104 -60 120q-209 0 -421 -300q-40 -78 -40 -221z" />
<glyph unicode="r" horiz-adv-x="1161" d="M60 801q39 92 80 100q117 0 200 -500h20q191 400 381 400h120q148 0 220 -200q0 -160 -140 -160q-69 180 -100 180h-100q-301 -267 -301 -561q-20 0 -20 -20l101 -460q0 -100 -121 -100h-20q-80 0 -260 1161q-20 0 -60 160z" />
<glyph unicode="s" horiz-adv-x="1061" d="M60 401q193 640 521 640h60q180 0 340 -280q-32 -100 -120 -100q-75 220 -280 220q-207 -93 -301 -360l-20 -100v-80q70 -141 180 -141q20 0 20 20q461 -23 461 -240q0 -252 -701 -500h-20q-80 113 -80 160q64 40 360 120q221 163 221 200v40q-601 19 -601 281 q-40 0 -40 120z" />
<glyph unicode="t" horiz-adv-x="1362" d="M60 341v40q160 120 160 440q68 341 120 341h60q40 -7 40 -40v-61q0 -135 -80 -500l40 -20q176 100 261 100q65 -20 80 -80q0 -106 -381 -220l-20 -80l20 -101h-20l20 -40l-20 -100q47 -300 120 -300q448 131 721 400h60q40 -6 40 -40v-100q-382 -362 -780 -440h-101 q-240 94 -240 480v20q20 80 20 140q0 57 -120 161z" />
<glyph unicode="u" horiz-adv-x="1221" d="M60 261q24 560 120 560h80l20 -80q-40 -250 -40 -420v-40l20 -121l-20 -40q101 -500 301 -500q95 0 320 320v40q-40 451 -40 481v300q0 29 60 60h80q160 -255 160 -540v-61q-40 -289 -40 -300q60 -100 60 -160v-20q-20 -60 -120 -60q-105 20 -120 20q-209 -280 -380 -280 q-392 0 -461 841z" />
<glyph unicode="v" horiz-adv-x="1302" d="M60 701v60q6 40 40 40h20q173 0 240 -420l261 -661h20q132 95 420 921l100 20l60 -80v-60l-140 -321q-180 -513 -380 -820h-60q-143 0 -581 1321z" />
<glyph unicode="w" horiz-adv-x="1562" d="M60 80q0 302 160 741h80q29 0 60 -60q-120 -447 -120 -601v-140q0 -295 160 -440v-20h20q114 0 181 620q20 61 120 61q214 -521 380 -521q200 115 200 260v60q0 186 -180 801q15 60 80 80q141 0 181 -460q100 -288 100 -361v-180q0 -240 -361 -400h-20q-340 100 -340 240 q-25 0 -160 -320q-104 -101 -181 -101h-40q-320 158 -320 741z" />
<glyph unicode="x" horiz-adv-x="1381" d="M60 661v80q0 29 60 60h20q325 -345 481 -420h40q84 219 400 460q80 -30 80 -60v-60q-360 -367 -360 -501q520 -423 520 -540l-100 -60q-86 19 -500 460h-40q-282 -347 -341 -540l-80 -60q-100 32 -100 120q0 64 280 460q101 133 101 181q-246 165 -461 420z" />
<glyph unicode="y" horiz-adv-x="1202" d="M60 341v260q0 180 120 220q66 -20 80 -80q-40 -139 -40 -240q0 -146 120 -240h20q204 0 481 440q87 283 140 320h80q35 0 60 -100q-240 -751 -240 -1081q-137 -409 -300 -741h-101q-28 0 -60 60v120q205 228 281 641q0 21 60 321v20h-20q-253 -201 -381 -201 q-163 0 -300 281z" />
<glyph unicode="z" horiz-adv-x="1462" d="M60 541v60q0 80 821 180h40q110 0 180 -120v-60q0 -236 -500 -821q-141 -170 -141 -220l41 -20h40q199 0 700 160h80q29 0 61 -60v-60q0 -69 -801 -241h-60q-149 0 -281 201v60q469 589 621 861q20 0 20 20v100q-80 0 -80 20q-225 -60 -661 -120q-80 30 -80 60z" />
<glyph unicode="{" horiz-adv-x="1361" d="M60 401q0 67 340 200q126 120 181 140q-20 376 -40 461q106 500 460 500q80 -30 80 -60v-60q0 -51 -180 -80q-160 -147 -160 -320q40 -340 40 -381v-40q0 -165 -280 -300v-40q340 -265 340 -461v-60q0 -72 -120 -340q137 -80 240 -80h220l100 -20v-80q0 -56 -200 -81h-20 q-540 0 -540 241q0 47 120 380v40q0 130 -321 321l-100 20l-40 -20q-120 48 -120 120z" />
<glyph unicode="}" horiz-adv-x="1141" d="M60 1502v60q20 60 120 60h40q421 -123 421 -360q20 0 20 -60q-80 -280 -80 -321v-20q0 -193 460 -360l20 -100q-100 -140 -400 -221v-40q140 -318 140 -400v-60q0 -189 -521 -461h-80q-60 20 -60 120v41q0 28 320 160l141 140v40q0 67 -161 440v20q0 161 261 221v20 q-321 255 -321 400q0 127 80 361q0 209 -380 280z" />
<glyph unicode="~" horiz-adv-x="1522" d="M60 421v60q120 560 360 560h20q110 0 421 -340q66 -40 120 -40h20q184 0 220 260q0 35 -40 120q30 81 60 81h40q161 -87 161 -221q-127 -460 -381 -460h-120q-182 0 -501 380q-132 0 -240 -540l-40 -20h-20q-52 0 -80 160z" />
<glyph unicode="&#xa2;" horiz-adv-x="1342" d="M60 401q0 350 521 741q60 342 60 480h80q80 -40 80 -120q-15 -260 -40 -260q0 -32 180 -161l60 -220q-30 -80 -60 -80h-40q-45 0 -100 200l-40 20q-40 0 -100 -680q20 -144 20 -361h20q90 0 540 240l20 -40v-40q0 -192 -580 -380l20 -240v-20q0 -141 -140 -141 q-60 62 -60 381v20q-231 135 -341 280q-100 113 -100 381zM240 301q0 -206 261 -321v120q0 67 20 100l-20 121q40 462 40 540h-20q-198 -139 -281 -440v-120z" />
<glyph unicode="&#xa3;" horiz-adv-x="1462" d="M60 -240q420 331 420 400v20h-160q-107 0 -140 81v60q0 40 60 40q381 0 381 80l20 120q-40 309 -40 380q30 366 440 481h20q155 0 200 -100v-60q0 -29 -60 -60h-40l-60 40h-20q-280 -81 -280 -281v-60l20 -120q0 -20 -20 -20q20 -138 40 -180l-20 -120v-60q6 -40 40 -40 h40q110 0 280 20q100 -33 100 -120q-38 -92 -80 -101q-334 20 -360 40q-150 0 -240 -220q-40 -6 -40 -40v-20q271 20 380 20q88 0 180 -40q20 0 20 20q241 0 241 -160q-28 -100 -141 -100q-206 100 -400 100q-399 -40 -741 -140q-40 66 -40 120v20z" />
<glyph unicode="&#xa9;" horiz-adv-x="2142" d="M60 501v120q0 661 701 1021q266 100 420 100h100q325 0 621 -460q160 -392 160 -601q0 -61 -20 -140q20 -78 20 -160q-54 -334 -240 -561q-201 -273 -781 -400q-150 -40 -180 -40q-471 0 -781 740q-20 219 -20 381zM240 601l20 -40v-320q0 -306 481 -661l140 -20 q861 255 861 500q140 165 140 641q-144 681 -300 681q0 102 -361 180h-60q-530 0 -861 -641q-40 -320 -60 -320zM541 441v40q0 619 420 821q35 20 80 20h60q243 0 281 -180q0 -22 20 -61q-30 -80 -61 -80q-197 161 -280 161q-176 0 -300 -441l-20 -140v-120 q40 -301 260 -301q51 0 360 181h21q40 -7 40 -40q0 -214 -441 -341q-440 127 -440 481z" />
<glyph unicode="&#xab;" horiz-adv-x="2041" d="M60 461q6 256 840 1100h40q120 0 120 -100q0 -31 -440 -480q-320 -361 -320 -520v-20q0 -186 440 -201q188 41 300 41h20q40 -7 40 -41v-40q0 -160 -320 -160h-20q-680 43 -680 361q-20 0 -20 60zM1020 701v40q0 280 601 780h80q28 0 60 -60q0 -100 -360 -400 q-161 -228 -161 -300v-20q180 -100 381 -100l140 20q200 -60 200 -100v-40q-27 -80 -180 -80h-220q-365 0 -541 260z" />
<glyph unicode="&#xad;" d="M60 521q0 100 661 160q484 60 761 120q91 -39 100 -80v-40q0 -100 -461 -100q-60 -34 -721 -100q0 -16 -220 -60q-120 20 -120 100z" />
<glyph unicode="&#xae;" horiz-adv-x="2242" d="M60 501v160q0 674 521 1161q319 161 540 161q345 -38 641 -241q208 -182 340 -600q0 -40 60 -481q0 -20 -20 -20l20 -40v-140q-215 -801 -500 -801q-133 -160 -541 -160q-441 0 -961 580zM240 741q0 -628 301 -761q306 -280 440 -280h220q381 0 641 380q140 296 140 481 q0 418 -160 821q-187 303 -501 380q-120 15 -120 40q-609 0 -801 -520q-100 -187 -160 -541zM561 1162v20q0 165 160 220q314 160 400 160h60q179 0 241 -280q0 -210 -381 -541q0 -25 521 -380q40 -49 40 -80q-47 -121 -80 -121h-20q-548 441 -661 441h-20v-20 q0 -119 40 -381q-39 -91 -80 -100h-60q-80 33 -80 141v280q0 82 -20 160q16 101 40 461q-33 20 -100 20zM821 861q118 0 340 240q60 123 60 161v20q0 86 -80 120q-320 -105 -320 -301v-240z" />
<glyph unicode="&#xb0;" horiz-adv-x="801" d="M60 361v220q0 361 380 460h40q177 0 241 -260v-140q0 -241 -421 -421h-20q-185 64 -220 141zM240 441q40 0 40 -20q136 0 261 280v40l-20 100h-61q-29 0 -220 -260v-140z" />
<glyph unicode="&#xb1;" horiz-adv-x="2082" d="M60 -300q0 128 861 140q0 20 20 20l-20 100v321q0 40 -40 40q-319 -40 -360 -40l-41 60v60q0 67 361 100h80q0 40 20 40l-20 100q60 585 60 861q39 91 80 100h40q40 0 60 -160q-60 -453 -60 -881v-20q0 -46 281 -60l60 -80v-60q0 -40 -60 -40q-249 20 -261 20l-20 -40 v-181q0 -260 80 -260h221q184 0 520 20q80 -30 80 -60v-60q-32 -80 -140 -80h-340l-120 -20l-41 20q-20 0 -20 -20l-100 20h-80q-60 0 -60 -20l-100 20h-140q-449 0 -721 -80q-80 30 -80 60v60z" />
<glyph unicode="&#xb2;" horiz-adv-x="840" d="M60 1121q0 176 340 660h-20q-140 -180 -220 -180l-60 80v40q179 320 380 320h40q120 -70 120 -180v-80q-153 -220 -320 -520v-20h60q17 0 300 100q80 -30 80 -60v-80q0 -90 -440 -180h-100q-109 0 -160 100z" />
<glyph unicode="&#xbb;" horiz-adv-x="2061" d="M60 20q0 92 380 341q480 437 480 600q0 203 -680 280q-133 0 -160 80v100q21 0 60 20q904 -34 1000 -460q0 -291 -700 -861q-200 -220 -300 -220q-80 20 -80 120zM800 1641l80 60h20q376 -140 841 -240q194 -145 240 -360q0 -233 -360 -700q-302 -281 -381 -281h-20 q-60 20 -60 120q0 27 381 361q220 325 220 460v40q0 240 -421 240q-540 126 -540 300z" />
<glyph unicode="&#xc0;" horiz-adv-x="1941" d="M60 -460q420 1518 640 2041l200 60q234 0 561 -1000q149 -415 360 -841q40 -127 40 -140q-39 -91 -80 -100h-20q-132 0 -200 280q-70 85 -201 441q-100 0 -300 -20l-300 40q-280 0 -280 -121q-100 -293 -180 -640q-77 -120 -100 -120q-140 0 -140 120zM480 2081v60 q0 29 60 60h60q573 -245 600 -340v-40q0 -29 -60 -60h-120q-81 0 -420 240q-80 0 -120 80zM560 481h20q313 20 460 20q22 0 60 20q35 -20 80 -20h60l40 20q-120 258 -200 540q-180 330 -220 340q-80 -116 -300 -920z" />
<glyph unicode="&#xc1;" horiz-adv-x="1641" d="M60 -240q0 137 360 1101q271 920 400 920q153 0 200 -300l421 -1180q120 -326 120 -781l-60 -40h-60q-121 72 -121 240v60q0 45 20 80q-48 441 -220 441q-35 20 -80 20q-21 0 -60 -20l-520 40q-40 -74 -220 -621l-80 -40q-91 39 -100 80zM340 1741q0 88 580 440 q166 159 240 160q92 -38 100 -80v-40q0 -119 -220 -180q-393 -317 -620 -400q-80 41 -80 100zM520 521q453 -20 560 -20q39 20 60 20q0 67 -200 560q-80 300 -120 300q-300 -700 -300 -860z" />
<glyph unicode="&#xc2;" horiz-adv-x="1901" d="M60 -580q140 783 440 1421q227 553 260 600q138 120 160 120q114 0 320 -500q381 -801 381 -1141q85 -102 200 -520v-80l-100 -20h-20q-140 99 -140 300q-100 171 -181 540q-80 0 -80 20q-38 -20 -60 -20q-169 0 -500 20l-240 -40q-39 20 -60 20q-100 -253 -140 -700 q-64 -140 -100 -140h-80q-60 20 -60 120zM280 1541q0 26 400 440q0 123 180 160q86 0 500 -520v-60q0 -31 -80 -80q-153 0 -380 400h-60q-314 -388 -420 -420h-80q-50 0 -60 80zM500 321h20q87 40 320 40h120q45 0 80 -20q280 31 280 60q-180 415 -400 860h-40 q-160 -411 -360 -860q-20 -35 -20 -80z" />
<glyph unicode="&#xc3;" horiz-adv-x="1841" d="M60 1761q80 500 240 500q191 0 440 -280l40 -20h40q60 0 60 80q0 15 -20 120q30 80 60 80h20q160 0 160 -200v-60q0 -176 -260 -240h-40q-192 0 -400 280h-40q-44 0 -140 -360h-80q-41 9 -80 100zM100 -420q66 0 140 660q167 1187 300 1381q85 80 160 80q107 -9 300 -460 q152 -190 360 -740q386 -827 401 -921q-41 -120 -80 -120q-155 0 -200 240q-189 460 -261 460l-320 40q-460 -84 -460 -120q-100 -640 -200 -640h-60q-31 0 -80 80v60zM460 341h20q574 52 680 80q0 58 -480 980h-40q-60 -260 -180 -1060z" />
<glyph unicode="&#xc4;" horiz-adv-x="2081" d="M60 -560q280 1450 480 2001q105 200 140 200h20q194 0 620 -840q188 -255 541 -1101q71 -32 140 -300q-28 -100 -140 -100q-104 102 -240 440l-281 581l-180 20l-620 -161q-160 0 -160 -300l-100 -500q-61 -80 -120 -80q-100 28 -100 140zM280 1941q49 120 120 120 q105 0 160 -100v-20q0 -109 -100 -160h-100q-52 0 -80 160zM480 381q720 180 740 180v20l-480 780h-20q-145 -367 -240 -960v-20zM680 2001q0 92 120 120q120 0 120 -140v-40q0 -29 -60 -60h-120q-60 20 -60 120z" />
<glyph unicode="&#xc5;" horiz-adv-x="1981" d="M60 -440q0 49 120 360q40 79 40 220v100q60 87 440 1321v20q-140 0 -200 260v60q0 165 260 300q387 0 460 -360q0 -115 -200 -260q180 -340 441 -1020q12 0 100 -120v-60q0 -20 -20 -20l400 -961q-39 -91 -80 -100h-40q-129 0 -180 260q-258 685 -341 741 q-840 -96 -840 -221q-127 -700 -220 -700q-107 0 -140 80v100zM500 401h20q427 40 680 120v20q-240 645 -360 840h-20q-320 -946 -320 -980zM680 1881q0 -120 120 -120h20q120 60 120 120q-41 120 -160 120q-27 0 -100 -100v-20z" />
<glyph unicode="&#xc6;" horiz-adv-x="2201" d="M60 -600q100 642 240 1101q255 960 360 960q65 100 160 100h20q32 0 220 -200q7 40 40 40h100l80 -60h40q41 0 381 100q91 -39 100 -80v-60q0 -89 -521 -180q-100 0 -100 -380v-380l20 -40l481 240h80q28 0 60 -60v-60q-61 -104 -441 -261q0 -40 -160 -80v-80 q0 -135 80 -500q67 0 281 140q209 91 420 380h80q40 -6 40 -40v-40q0 -267 -480 -500q-161 -161 -421 -220h-40q-110 0 -140 500q-40 200 -80 541h-20q-452 -141 -520 -181q-152 -820 -220 -820q-140 0 -140 120zM480 381q144 0 460 120v60q0 114 20 140q0 375 -160 600 q-150 -147 -320 -920z" />
<glyph unicode="&#xc7;" horiz-adv-x="1421" d="M60 261q0 43 120 640q305 720 520 720q0 48 300 80q280 -155 280 -340q0 -31 -80 -80h-40q-40 0 -140 200h-120q-258 0 -520 -640q0 -55 -100 -500v-80q78 -441 260 -441h80q139 0 160 220q0 46 100 60q100 -27 100 -140q-20 -38 -20 -60h20q134 60 220 140h80 q60 -20 60 -120q0 -125 -440 -260v-40q200 -40 200 -200q0 -125 -100 -220h-220v20l100 120v60q0 40 -220 60v140h-100q-354 0 -460 500q-40 128 -40 161z" />
<glyph unicode="&#xc8;" horiz-adv-x="1581" d="M60 60q40 746 140 1241v40q-60 66 -60 100q36 160 580 160q50 0 260 -40l140 40q227 0 260 -160q0 -71 -160 -100q-36 20 -200 40l-40 -20q-218 40 -320 40q-260 0 -260 -120q0 -137 -100 -540v-300q293 44 380 120h80q108 0 140 -80v-60q0 -80 -600 -181l-40 -140 q54 -520 220 -520q269 48 800 420q73 80 161 80q40 0 60 -120q0 -109 -841 -560q-202 -40 -240 -40q-229 0 -340 540q0 83 -20 160zM220 2061v80q6 40 40 40h100q241 -187 500 -300l40 -60q0 -104 -60 -120h-80q-195 41 -540 360z" />
<glyph unicode="&#xc9;" horiz-adv-x="1721" d="M60 1381q41 80 100 80q265 0 560 -40q10 0 80 20q110 -20 160 -20q18 0 160 20q80 -12 80 -160q0 -53 -100 -100q-264 60 -700 60h-40q-40 -6 -40 -40q20 -493 20 -780v-20q81 0 520 140h100q42 -9 80 -100q0 -134 -620 -221q-100 -45 -100 -200q0 -440 100 -440h60 q851 220 1001 360h100q60 -20 60 -120v-20q0 -101 -881 -360q-133 -80 -320 -80h-60q-187 0 -260 400v200q0 20 20 20l-20 40v20q0 60 20 60q0 22 -20 60q20 418 20 681v20q0 45 -20 80q20 35 20 80q0 161 -80 360zM560 1641q0 132 520 440h100q46 0 60 -100 q0 -101 -580 -400h-40q-29 0 -60 60z" />
<glyph unicode="&#xca;" horiz-adv-x="1701" d="M60 140q5 486 120 1141v140q41 80 100 80q648 -80 760 -80l80 40q120 -31 120 -140q-20 -120 -100 -120l-720 80h-40l-120 -760v-20q26 -100 60 -100l760 120q120 -20 120 -100q0 -111 -520 -160q-420 -65 -420 -101q0 -20 20 -20l-20 -100q27 -303 100 -320h20 q1041 105 1041 220l40 20q160 -36 160 -80v-60q0 -162 -1161 -300h-200q-200 122 -200 620zM260 1741v80q318 188 660 560v20h120q60 0 100 -340q160 -266 160 -320v-20q-40 -80 -120 -80q-116 0 -240 420v20h-40q-429 -400 -560 -400q-80 30 -80 60z" />
<glyph unicode="&#xcb;" horiz-adv-x="1581" d="M60 40v180q40 597 40 621q0 21 -20 60l60 380q-40 66 -40 120q0 25 160 160q101 -100 320 -100q503 100 560 100q39 -20 60 -20v-60q0 -180 -420 -180q0 -20 -140 -20h-280q-60 0 -80 -740h20q189 0 820 180h40q29 0 60 -60q0 -200 -340 -200q-246 -74 -620 -140v-341 q19 -300 140 -300h20q900 170 900 300q66 40 101 40l80 -100v-80q0 -116 -701 -280q0 -47 -380 -80q-340 0 -340 400q-20 20 -20 160zM220 1981l80 60h120q41 -9 80 -100q-29 -120 -160 -120q-120 41 -120 160zM940 1941q47 120 80 120h100q73 -37 100 -120 q-34 -160 -180 -160q-100 38 -100 160z" />
<glyph unicode="&#xd2;" horiz-adv-x="1821" d="M60 461v200q0 294 260 760q185 200 360 200h40q466 0 801 -440q220 -454 220 -820q0 -264 -180 -581q-241 -340 -461 -340h-220q-345 0 -700 480q-120 338 -120 541zM260 641q0 -736 480 -941q0 -40 140 -40h200q228 0 421 520q12 181 40 181q-131 840 -301 840 q-225 188 -460 240q-277 0 -440 -460q-26 0 -80 -340zM440 2161v60l60 40h100q207 -186 500 -360l20 -40v-40q-20 -60 -120 -60q-157 0 -560 400z" />
<glyph unicode="&#xd3;" horiz-adv-x="2021" d="M60 200v40q0 543 180 861q217 396 520 520q330 80 420 80q207 -55 441 -300q260 -469 260 -600q0 -83 60 -440v-221q0 -523 -460 -740q-148 -120 -381 -120q-534 53 -660 180q-380 267 -380 740zM280 261q0 -472 240 -581q210 -180 580 -180q372 0 601 400q40 180 40 260 v60l-20 121q20 35 20 80q-64 549 -240 780q-188 293 -341 300h-60q-235 0 -520 -260q-300 -337 -300 -980zM880 1921q191 240 420 240q66 -20 80 -80q0 -150 -400 -260h-40q-45 0 -60 100z" />
<glyph unicode="&#xd4;" horiz-adv-x="1761" d="M60 401q48 763 220 840q146 218 380 300l-20 40v20q33 80 140 80h40q229 0 601 -440q240 -259 240 -780q20 0 20 -60q-144 -821 -801 -821h-20q-472 116 -620 380q-150 165 -180 441zM200 1701v80q625 580 680 580q65 0 460 -480q40 0 40 -100v-80l-100 -20 q-100 0 -260 260q-125 140 -160 140q-282 -242 -540 -420h-80q-40 0 -40 40zM280 421q0 -301 320 -521q252 -100 280 -100h60q259 0 461 340q50 0 60 241q0 515 -101 640q-254 340 -320 340q0 60 -120 60q0 -60 -240 -80q-400 -202 -400 -840v-80z" />
<glyph unicode="&#xd5;" horiz-adv-x="2041" d="M60 521q0 407 340 800q191 220 220 220q168 60 380 100q340 -60 521 -220q320 -294 440 -840q0 -20 -20 -20q20 -110 20 -160q0 -701 -601 -981q-60 0 -140 -40q-407 0 -820 320q-340 316 -340 821zM200 1781q0 227 300 440h100q43 0 240 -200q145 -60 180 -60h20l20 100 v220q0 46 100 60q60 0 140 -140q0 -372 -220 -500q-175 0 -520 280h-20q-29 0 -220 -300h-60zM280 461q0 -716 900 -861q343 108 501 440q60 218 60 261v180q0 20 20 20q-93 506 -280 700q-211 192 -441 220h-160q-167 0 -500 -460q-100 -279 -100 -500z" />
<glyph unicode="&#xd6;" horiz-adv-x="2001" d="M60 261l20 40q-20 35 -20 80q60 263 180 580q337 560 640 560q0 40 120 40q467 0 761 -520q160 -317 160 -640v-40q0 -748 -561 -981q-120 -60 -380 -60h-60q-417 0 -680 400q-42 0 -160 400q0 61 -20 141zM280 321q103 -781 660 -781h60q313 0 561 240q160 375 160 621 q0 342 -240 740q-286 220 -381 220h-120q-232 0 -540 -460q-120 -326 -160 -580zM440 1941v60q0 31 80 80h40q38 -3 160 -160v-80q0 -40 -40 -40h-40q-111 0 -200 140zM1120 1901v60q0 120 120 120h20q80 -32 80 -140v-40q-40 -100 -140 -100q-27 1 -80 100z" />
<glyph unicode="&#xd8;" horiz-adv-x="2061" d="M60 401q120 780 240 780q192 313 580 440h120q125 0 481 -140q245 340 280 340h40q80 -41 80 -100q-45 -105 -220 -340v-40q320 -247 320 -840q0 -484 -460 -1041q-332 -220 -461 -220q-178 0 -580 200h-20q-123 -260 -220 -260q-100 28 -100 140v20l160 260v80 q-220 332 -220 480q-20 142 -20 241zM280 281q0 -79 140 -401h40l900 1401q-275 140 -320 140h-20q-192 0 -480 -260q-260 -358 -260 -880zM600 -320v-20q21 -53 260 -140q200 -40 200 -60q353 158 501 440q200 365 200 681v20q0 387 -220 560q-464 -644 -941 -1481z" />
<glyph unicode="&#xd9;" horiz-adv-x="1541" d="M60 421v260q122 880 240 880h60q60 -20 60 -120q-80 -255 -160 -740v-461q0 -293 400 -440q100 0 100 -20q520 249 520 601l-20 40v120q0 128 -20 260l20 120q-40 95 -100 380q0 53 100 100q191 0 201 -1080q0 -502 -661 -741h-100q-271 0 -540 340q-100 185 -100 501z M580 2261q34 100 100 100q40 0 140 -160q231 -101 260 -180v-60q0 -29 -60 -60h-60q-255 84 -360 280z" />
<glyph unicode="&#xda;" horiz-adv-x="1681" d="M60 921q0 27 40 220l-20 80q36 440 160 440h40q40 -6 40 -40q-20 -620 -60 -620q0 -634 260 -1061q185 -175 380 -200h100q159 0 300 300q80 112 121 661l-20 100q20 105 20 200v80q0 149 -161 360v20q41 120 80 120h81q180 -201 180 -580v-160q0 -126 -20 -300 q20 -80 20 -140q0 -421 -361 -801q-102 -60 -200 -60h-220q-365 105 -540 400q-140 189 -220 981zM660 1861q3 43 500 480q10 80 60 80h80q60 -20 60 -120q-156 -218 -560 -540h-120z" />
<glyph unicode="&#xdb;" horiz-adv-x="1861" d="M60 381v80q100 321 100 500q66 0 180 720l100 20q80 -30 80 -60v-100l-200 -980q-60 -13 -60 -160q99 -541 260 -541q93 -100 380 -180h140q316 0 521 801q0 175 20 440l-20 100q20 131 20 260v40q0 67 -60 140v40q60 100 140 100q105 0 120 -200q0 -50 -20 -160l20 -100 l-20 -80q0 -40 20 -40q-20 -200 -20 -300v-280q0 -286 -300 -721q-212 -280 -501 -280q-223 0 -680 340q-220 299 -220 601zM720 2121v20q0 107 120 220h360q221 -319 221 -340q-30 -80 -61 -80h-100q-28 0 -240 300h-20q-14 0 -180 -180h-40q-28 0 -60 60z" />
<glyph unicode="&#xdc;" horiz-adv-x="1801" d="M60 381v20q0 71 20 180l-20 40q206 920 360 920h40l60 -80v-40q-260 -697 -260 -1080q92 -781 240 -781q141 -160 380 -160q354 87 500 340q141 210 141 821q0 386 -120 720q33 100 100 100q180 0 200 -420l20 -140q0 -45 -20 -80q20 -170 20 -280v-200q0 -372 -220 -741 q-326 -340 -641 -340q-325 0 -460 180q-340 227 -340 1021zM580 2061q39 91 80 100h60q100 -51 100 -160v-40q0 -104 -60 -120h-60q-120 69 -120 220zM1020 1981v60q0 140 140 140q80 -20 80 -120v-40q0 -109 -80 -160h-80q-60 20 -60 120z" />
<glyph unicode="&#xe0;" horiz-adv-x="1301" d="M60 -80q0 426 540 721h100q320 -40 320 -180q52 -841 200 -841v-120q0 -29 -60 -60h-80q-72 58 -160 300h-20q-65 -169 -380 -280h-140q-320 105 -320 400v20h20zM260 -20v-120q0 -200 200 -200h60q340 155 340 460q-12 381 -80 381h-40q-224 0 -460 -421 q-20 -33 -20 -100zM580 1261l60 40h40q54 -14 200 -200q340 -196 340 -300l-60 -40h-20q-134 0 -440 300q-120 121 -120 200z" />
<glyph unicode="&#xe1;" horiz-adv-x="1561" d="M60 -140q34 706 620 941q80 20 140 20q212 -52 240 -100q40 -98 100 -561q143 -440 301 -440l20 -80q-28 -100 -141 -100h-20q-109 0 -260 380h-20q0 -170 -440 -440l-120 -20h-80q-340 165 -340 400zM240 -80q80 -280 220 -280q287 106 420 340q36 177 60 441 q-40 240 -180 240q-520 -300 -520 -741zM640 1081v40q81 87 500 300q80 0 120 -100q0 -105 -400 -240q0 -33 -140 -60q-80 30 -80 60z" />
<glyph unicode="&#xe2;" horiz-adv-x="1481" d="M60 120q103 358 400 541q107 100 440 160q220 0 220 -681q35 -460 220 -460q29 0 61 -60v-80q0 -104 -61 -120h-60q-163 160 -220 320h-20q-341 -300 -480 -300h-140q-320 104 -320 360q-40 186 -40 320zM220 20q56 -380 160 -380q0 -40 100 -40q237 34 440 280 q40 166 40 320q0 185 -80 441h-20l-120 -20v20q-520 -260 -520 -621zM380 981q0 100 160 220q381 434 400 440h40q86 0 260 -640q0 -29 -60 -60h-20q-83 0 -220 460q-435 -460 -460 -460h-60q-40 0 -40 40z" />
<glyph unicode="&#xe3;" horiz-adv-x="1501" d="M60 -140q0 486 480 921q160 100 220 100h20l100 -20v-60q-302 -183 -440 -340q-200 -280 -200 -641q14 -220 180 -220q234 0 460 360q40 380 40 481q0 15 -20 120l20 120l-20 80q30 80 60 80h60q60 0 80 -200q0 -22 -20 -60q32 -861 140 -861q80 -10 80 -60v-20 q0 -153 -80 -180h-60q-59 19 -180 320h-20q-96 -193 -440 -360h-80q-352 0 -380 400v40zM500 1261v20q86 159 180 200h60q82 -20 300 -360h60q140 76 140 180l-20 200h100q101 -51 101 -160q0 -250 -321 -420q-163 0 -380 360l-140 -140h-20q-60 20 -60 120z" />
<glyph unicode="&#xe4;" horiz-adv-x="1421" d="M60 -260q0 582 620 921q130 0 260 40h20q85 0 100 -521q80 -639 260 -740l20 -40v-60q-8 -41 -100 -80q-110 0 -240 360h-40q-181 -320 -480 -320q-327 0 -420 440zM260 -160v-120q0 -173 220 -200q335 0 420 480q-80 354 -80 441v40h-20q-362 0 -540 -641zM460 1161 q0 80 100 140h160q29 0 60 -60q0 -160 -260 -220q-60 73 -60 140zM960 1141v40q77 140 100 140q110 0 160 -140v-60q-68 -120 -160 -120q-100 28 -100 140z" />
<glyph unicode="&#xe6;" horiz-adv-x="2581" d="M60 -200q106 340 260 601q4 78 200 240q157 157 320 180h80q240 -53 240 -180q20 -26 20 -140v-140l-20 -100q32 0 200 300q110 109 401 280h120q240 0 240 -320q-84 -541 -200 -541q0 -72 -300 -260v-40q174 14 600 220l140 160h80q60 -20 60 -120q0 -318 -1100 -480 q-421 158 -421 320h-20q-289 -340 -620 -340q-260 43 -260 260zM280 -180v-120q0 -28 60 -60h20q478 105 580 580l20 141l-20 80q20 105 20 200l-40 20h-60q-372 -208 -560 -761q-20 -35 -20 -80zM1320 -40v-20l20 -100q581 170 581 701v60q0 28 -60 60q-380 -183 -460 -421 q-81 -206 -81 -280z" />
<glyph unicode="&#xe7;" horiz-adv-x="1321" d="M60 100q53 504 180 701q215 260 420 260h120q73 0 160 -280v-100q0 -32 -80 -80h-40q-80 40 -80 120l20 40q-40 120 -80 120h-60q-360 -240 -360 -781q131 -440 340 -440q0 -20 40 -20q229 37 520 260h60l20 -100v-40q-73 -125 -440 -280q40 -65 40 -120v-20 q0 -221 -360 -280h-140q-260 40 -260 120v60q0 50 80 60q180 -40 260 -40h40q153 0 180 80v40h-100q-40 0 -40 40v20q0 20 20 20q0 44 -200 120q-235 275 -260 520z" />
<glyph unicode="&#xe8;" horiz-adv-x="1200" d="M60 -120q0 604 220 841q147 200 400 200q240 -200 240 -400q0 -235 -460 -461h-200q0 -60 -20 -60q0 -228 260 -440q280 0 540 280h80v-40q0 -288 -540 -440h-60q-272 0 -460 520zM120 1421v20l60 40h20q34 0 260 -260q68 -16 120 -120v-60q0 -60 -80 -60 q-160 0 -380 440zM280 301l60 -40h60q340 115 340 320q-40 140 -160 140h-20q-280 -222 -280 -420z" />
<glyph unicode="&#xe9;" horiz-adv-x="1261" d="M60 160v60q0 51 80 61l100 -61h20q141 621 440 621q340 -24 340 -340q0 -362 -600 -501v-160q0 -240 200 -240q131 0 460 400q80 -30 80 -60q0 -225 -460 -520q-21 0 -60 -20q-380 96 -380 300q-20 0 -40 240q20 39 20 60q-138 66 -200 160zM380 981q352 320 440 320 q29 0 60 -60v-60q-70 -108 -420 -320q-80 20 -80 120zM460 200q400 86 400 301v60q-40 100 -140 100q-91 0 -180 -160l20 -100q-100 -52 -100 -161v-40z" />
<glyph unicode="&#xea;" horiz-adv-x="1181" d="M60 -120q0 354 320 801q185 184 380 220q260 -48 260 -240v-20q0 -324 -620 -541q-160 0 -160 -120v-40q0 -179 180 -360q373 120 560 260h60q29 0 60 -60q0 -152 -680 -380h-20q-155 0 -340 440v40zM120 961v40q100 160 440 540h60q82 0 280 -460q0 -80 -80 -100 q-99 7 -220 340h-20q-309 -382 -380 -420h-20q-29 0 -60 60zM340 261h20q500 170 500 440l-40 20h-60q-231 0 -420 -460z" />
<glyph unicode="&#xeb;" horiz-adv-x="1541" d="M60 -60q0 429 300 881q272 220 380 220h80q202 0 280 -300q0 -280 -780 -480q-65 -241 -80 -241q100 -340 280 -340q21 0 60 20q20 0 20 -20q164 0 760 340q39 20 61 20l40 -60v-20q0 -135 -741 -460q-77 -20 -160 -20q-342 0 -420 280q-31 0 -80 180zM280 1361v20 q125 160 140 160h40q27 0 100 -100q0 -111 -140 -200h-20q-120 0 -120 120zM400 481q500 107 500 320l-60 40h-80q-197 0 -360 -340v-20zM760 1381q7 47 120 140q180 -24 180 -80v-60q-125 -140 -200 -140q-100 28 -100 140z" />
<glyph unicode="&#xee;" horiz-adv-x="1821" d="M60 -520q507 582 580 881l60 40h40q32 0 80 -80v-141q55 -520 160 -520h60q473 164 581 400h60q60 0 60 -80q-75 -219 -401 -400q-208 -120 -320 -120h-60q-246 0 -300 460h-20q-327 -505 -540 -560h-40v120zM380 641v40q412 500 480 500q120 0 280 -560 q-38 -92 -80 -100h-40q-95 0 -160 400h-40q-293 -338 -320 -340h-60q-29 0 -60 60z" />
<glyph unicode="&#xef;" horiz-adv-x="1301" d="M60 -380q185 83 440 540q193 481 320 481q60 -66 60 -100q-60 -345 -80 -681q20 -140 60 -140q60 0 320 100q40 -6 40 -40v-80q-175 -180 -440 -180q-160 0 -160 420v60q-22 0 -240 -340q-200 -200 -240 -200q-80 16 -80 160zM580 1021v40q0 120 120 120h20q32 0 80 -80 q0 -109 -100 -160h-40q-31 0 -80 80zM900 1001v20q60 65 60 100h60q73 -38 100 -120q-51 -120 -140 -120q-80 20 -80 120z" />
<glyph unicode="&#xf1;" horiz-adv-x="1321" d="M60 561l60 40h40q100 -45 100 -200v-40h40q195 320 360 320q0 20 20 20q-177 257 -200 260h-20q0 -153 -80 -180h-40q-60 0 -100 180q27 300 220 300h20q42 0 340 -360q200 115 200 380l40 20h100q80 -27 80 -180q-108 -274 -340 -460q280 -67 280 -561q0 -321 20 -460 q-80 -80 -120 -80q-120 40 -120 120l20 80q0 20 -20 20l20 140v20q0 521 -160 521h-140q-300 -193 -300 -521q-20 0 -40 -120l20 -120v-120q0 -40 -40 -40h-100q-109 0 -160 1021z" />
<glyph unicode="&#xf9;" horiz-adv-x="1881" d="M60 -460q0 47 360 600q135 481 300 481q16 0 60 -60q-20 -235 -20 -341v-140q0 -63 120 -380h20q180 0 380 440q56 381 161 381q120 -29 120 -120l-60 -381q115 -340 280 -340l20 -40v-60q-20 -60 -120 -60h-20q-140 0 -321 260q-342 -340 -420 -340q-204 82 -240 200 q-108 340 -140 340q-60 -173 -340 -500h-80q-29 0 -60 60zM840 1261v20q0 53 100 100q24 0 320 -320q161 -20 161 -160q-30 -80 -61 -80h-40q-188 0 -480 440z" />
<glyph unicode="&#xfa;" horiz-adv-x="1621" d="M60 -340q100 180 260 681l-20 40q28 140 80 140h60q29 0 60 -60v-40l-40 -361q0 -342 240 -420q360 160 360 741q20 0 60 240h100q29 0 60 -60v-60q0 -170 -80 -581q0 -200 140 -200h40q49 40 81 40q65 -20 80 -80q0 -87 -221 -160q-161 0 -240 180h-20 q-182 -240 -300 -240h-100q-190 0 -340 300v20h-20q-49 -200 -180 -200q-30 0 -60 80zM540 841q0 56 340 340q20 60 120 60q100 -15 100 -60v-60q-421 -380 -500 -380q-60 65 -60 100z" />
<glyph unicode="&#xfb;" horiz-adv-x="1340" d="M60 -100q20 661 100 661h40q60 0 60 -80q0 -26 -40 -541q0 -341 240 -400h20q152 0 300 360q0 361 40 361l-20 40q15 260 60 260h20q120 0 120 -120h-20q20 -39 20 -60q-40 -423 -40 -501v-120q0 -30 80 -60q150 40 180 40q40 -48 40 -80q0 -71 -200 -140 q-104 4 -220 100q-193 -240 -320 -240q-315 0 -440 320zM320 841v100q328 480 380 480q127 0 160 -500q20 0 20 -80l-60 -40h-100q-46 320 -80 320q-144 -253 -220 -300z" />
<glyph unicode="&#xfc;" horiz-adv-x="1341" d="M60 140v80q29 541 160 541h60q30 0 60 -80q-60 -164 -100 -561q0 -440 400 -540h40q126 86 260 340v381q48 360 120 360q160 0 160 -180l-20 -100q0 -22 20 -60l-60 -401q0 -122 100 -380q-40 -80 -120 -80q-120 41 -120 140h-40q-152 -220 -360 -220h-40 q-388 162 -480 420q-40 160 -40 340zM420 1041q16 140 100 140q131 0 160 -120q-39 -140 -140 -140q-60 0 -120 120zM840 1021v40q0 109 100 160h100q40 -6 40 -40v-40q0 -110 -120 -180q-103 0 -120 60z" />
<glyph unicode="&#x152;" horiz-adv-x="2121" d="M60 240q20 109 20 181q0 50 -20 160q65 406 360 740q135 100 200 100l100 -80h20q0 60 100 60h20l100 -80q417 80 581 200h120q28 0 60 -60v-80q-25 -75 -441 -180l-260 -100q100 -323 140 -560h20l581 320h20q28 0 60 -60v-80q-46 -86 -360 -240q-361 -190 -361 -241 v-140q0 -111 120 -320q330 0 681 501h40q80 -20 80 -121q0 -195 -540 -540l-141 -40h-140q-176 0 -240 260h-20q-291 -260 -420 -260h-60q-334 0 -400 560q0 67 -20 100zM260 341q41 -561 220 -561q299 97 420 360v40q-33 221 -80 761l-100 380q-285 -164 -420 -600 l-40 -120l20 -140z" />
<glyph unicode="&#x153;" horiz-adv-x="2421" d="M60 -80q211 1101 640 1101q171 0 380 -340q226 420 441 420q300 -103 300 -340q20 0 20 -80q0 -421 -541 -641q-120 0 -120 -40q54 -300 241 -300h100q380 0 720 440h40q60 -20 60 -120q-325 -520 -720 -520q0 -20 -60 -20q-339 0 -521 240q-234 -300 -360 -300 q-392 0 -540 280q-55 220 -80 220zM280 20v-40q0 -292 320 -340h80q300 207 300 661q0 263 -220 500l-40 20q-260 0 -440 -801zM1220 261l40 -21q381 200 381 441v20q0 153 -80 180h-80q-261 -173 -261 -620z" />
<glyph unicode="&#x2000;" horiz-adv-x="1210" />
<glyph unicode="&#x2001;" horiz-adv-x="2421" />
<glyph unicode="&#x2002;" horiz-adv-x="1210" />
<glyph unicode="&#x2003;" horiz-adv-x="2421" />
<glyph unicode="&#x2004;" horiz-adv-x="807" />
<glyph unicode="&#x2005;" horiz-adv-x="605" />
<glyph unicode="&#x2006;" horiz-adv-x="403" />
<glyph unicode="&#x2007;" horiz-adv-x="403" />
<glyph unicode="&#x2008;" horiz-adv-x="302" />
<glyph unicode="&#x2009;" horiz-adv-x="484" />
<glyph unicode="&#x200a;" horiz-adv-x="134" />
<glyph unicode="&#x2010;" d="M60 521q0 100 661 160q484 60 761 120q91 -39 100 -80v-40q0 -100 -461 -100q-60 -34 -721 -100q0 -16 -220 -60q-120 20 -120 100z" />
<glyph unicode="&#x2011;" d="M60 521q0 100 661 160q484 60 761 120q91 -39 100 -80v-40q0 -100 -461 -100q-60 -34 -721 -100q0 -16 -220 -60q-120 20 -120 100z" />
<glyph unicode="&#x2012;" d="M60 521q0 100 661 160q484 60 761 120q91 -39 100 -80v-40q0 -100 -461 -100q-60 -34 -721 -100q0 -16 -220 -60q-120 20 -120 100z" />
<glyph unicode="&#x2013;" horiz-adv-x="1164" d="M60 521q0 100 445 160q325 60 512 120q61 -39 67 -80v-40q0 -100 -310 -100q-41 -34 -485 -100q0 -16 -148 -60q-81 20 -81 100z" />
<glyph unicode="&#x2014;" horiz-adv-x="2188" d="M60 521q0 100 889 160q652 60 1024 120q123 -39 135 -80v-40q0 -100 -620 -100q-81 -34 -970 -100q0 -16 -297 -60q-161 20 -161 100z" />
<glyph unicode="&#x2018;" horiz-adv-x="801" d="M60 865v40q36 272 360 601q28 0 200 180q39 20 61 20l40 -60v-20q0 -93 -381 -460l-100 -281q40 -65 40 -120l-20 -80h-80q-120 70 -120 180z" />
<glyph unicode="&#x2019;" horiz-adv-x="801" d="M60 745v20q0 93 381 460l100 281q-40 65 -40 120l20 80h80q120 -70 120 -180v-40q-36 -272 -360 -601q-28 0 -200 -180q-39 -20 -61 -20z" />
<glyph unicode="&#x201c;" horiz-adv-x="1726" d="M60 865v40q36 272 360 601q28 0 200 180q39 20 61 20l40 -60v-20q0 -93 -381 -460l-100 -281q40 -65 40 -120l-20 -80h-80q-120 70 -120 180zM985 865v40q36 272 360 601q28 0 200 180q39 20 61 20l40 -60v-20q0 -93 -381 -460l-100 -281q40 -65 40 -120l-20 -80h-80 q-120 70 -120 180z" />
<glyph unicode="&#x201d;" horiz-adv-x="1726" d="M60 745v20q0 93 381 460l100 281q-40 65 -40 120l20 80h80q120 -70 120 -180v-40q-36 -272 -360 -601q-28 0 -200 -180q-39 -20 -61 -20zM985 745v20q0 93 381 460l100 281q-40 65 -40 120l20 80h80q120 -70 120 -180v-40q-36 -272 -360 -601q-28 0 -200 -180 q-39 -20 -61 -20z" />
<glyph unicode="&#x202f;" horiz-adv-x="484" />
<glyph unicode="&#x205f;" horiz-adv-x="605" />
<glyph unicode="&#x20ac;" horiz-adv-x="2242" d="M60 200v61q280 33 280 140q20 142 20 160h-180q-29 0 -60 60v60q0 33 320 100q330 861 741 861h281q280 -84 280 -260v-40h-20q-63 0 -240 140l-100 20q-496 0 -721 -661v-20l741 100q100 0 100 -120q0 -87 -701 -140q-260 0 -260 -200v-80q413 60 700 140 q120 -13 120 -60v-40q0 -103 -840 -241l-20 -40v-20q140 -500 340 -500q200 -33 200 -60q589 0 1041 560h40q40 -6 40 -40q0 -278 -620 -620q-312 -60 -421 -60h-80q-536 0 -721 620q0 100 -100 100q-117 0 -160 80z" />
<glyph unicode="&#x2122;" horiz-adv-x="1841" d="M60 1382v20q0 85 400 200q393 40 541 120q160 0 240 -460h20q171 360 261 360h20q162 0 220 -701l-60 -40h-40q-120 0 -120 180q0 179 -20 241q-49 -26 -181 -301q-84 -80 -160 -80q-80 90 -80 140h-40v-20q0 -282 -140 -380h-40q-29 0 -60 60q80 292 120 761q20 0 20 20 h-20q-360 -80 -360 -120v-180q40 -143 40 -161v-80q0 -104 -60 -120h-60q-101 52 -101 160q0 45 20 80q-20 36 -20 81v20l20 120q-20 35 -20 80h-40q-35 0 -180 -60q-120 20 -120 60zM761 1983v100h40q40 -7 40 -40v-20q0 -40 -40 -40h-40z" />
<glyph unicode="&#x25fc;" horiz-adv-x="840" d="M0 0v840h840v-840h-840z" />
</font>
</defs>
</svg>
